<svg width="21" height="21" viewBox="0 0 21 21" fill="none" xmlns="http://www.w3.org/2000/svg">
<path d="M14.75 1H5.58333C3.05203 1 1 3.05203 1 5.58333V14.75C1 17.2813 3.05203 19.3333 5.58333 19.3333H14.75C17.2813 19.3333 19.3333 17.2813 19.3333 14.75V5.58333C19.3333 3.05203 17.2813 1 14.75 1Z" stroke="white" stroke-width="1.5" stroke-linecap="round" stroke-linejoin="round"/>
<path d="M13.8333 9.58928C13.9464 10.3522 13.8161 11.1313 13.4609 11.8159C13.1057 12.5004 12.5437 13.0556 11.8548 13.4023C11.1659 13.7491 10.3852 13.8697 9.62379 13.7472C8.86235 13.6247 8.15893 13.2652 7.61359 12.7198C7.06824 12.1745 6.70874 11.4711 6.58621 10.7096C6.46369 9.9482 6.58438 9.16752 6.93112 8.47862C7.27786 7.78973 7.83299 7.22771 8.51756 6.8725C9.20212 6.51729 9.98126 6.38699 10.7442 6.50011C11.5223 6.61551 12.2428 6.97812 12.799 7.53439C13.3553 8.09067 13.7179 8.8111 13.8333 9.58928Z" stroke="white" stroke-width="1.5" stroke-linecap="round" stroke-linejoin="round"/>
<path d="M15.2083 5.125H15.2183" stroke="white" stroke-width="1.5" stroke-linecap="round" stroke-linejoin="round"/>
</svg>
