<svg width="12" height="14" viewBox="0 0 12 14" fill="none" xmlns="http://www.w3.org/2000/svg">
<path d="M10.75 5.875C10.75 9.66667 5.875 12.9167 5.875 12.9167C5.875 12.9167 1 9.66667 1 5.875C1 4.58207 1.51361 3.34209 2.42785 2.42785C3.34209 1.51361 4.58207 1 5.875 1C7.16793 1 8.40791 1.51361 9.32215 2.42785C10.2364 3.34209 10.75 4.58207 10.75 5.875Z" stroke="white" stroke-linecap="round" stroke-linejoin="round"/>
<path d="M5.875 7.5C6.77246 7.5 7.5 6.77246 7.5 5.875C7.5 4.97754 6.77246 4.25 5.875 4.25C4.97754 4.25 4.25 4.97754 4.25 5.875C4.25 6.77246 4.97754 7.5 5.875 7.5Z" stroke="white" stroke-linecap="round" stroke-linejoin="round"/>
</svg>
