<svg width="15" height="18" viewBox="0 0 15 18" fill="none" xmlns="http://www.w3.org/2000/svg">
<path d="M13.4937 13.9054L13.1158 15.9965C13.0815 16.1908 13.007 16.3757 12.8971 16.5396C12.7872 16.7034 12.6443 16.8424 12.4775 16.9478C12.3107 17.0532 12.1238 17.1226 11.9287 17.1515C11.7335 17.1805 11.5345 17.1684 11.3443 17.116C9.24151 16.4952 7.31364 15.3899 5.7156 13.8889C4.22485 12.5143 3.05503 10.8283 2.28923 8.95073C1.43987 6.91939 1.08095 4.71654 1.24155 2.52064C1.25897 2.32474 1.31699 2.13461 1.41191 1.96235C1.50684 1.7901 1.63659 1.6395 1.7929 1.52015C1.94922 1.40079 2.12868 1.31529 2.31985 1.26908C2.51102 1.22288 2.70972 1.21699 2.90329 1.25179L4.99441 1.62972C5.33329 1.68753 5.63959 1.86659 5.85621 2.13353C6.07284 2.40047 6.18501 2.73707 6.17181 3.08059C6.13912 3.76575 6.18405 4.4524 6.30574 5.12746C6.35443 5.3939 6.32572 5.66871 6.22302 5.91933C6.12031 6.16995 5.94792 6.38588 5.72626 6.54153L4.68102 7.26677C5.3579 9.19118 6.54166 10.8972 8.10739 12.2049L9.15263 11.4796C9.37601 11.3265 9.63863 11.2406 9.90934 11.2321C10.1801 11.2236 10.4475 11.2929 10.6801 11.4318C11.2698 11.7821 11.8973 12.0645 12.5506 12.2737C12.8805 12.3827 13.1589 12.6091 13.3328 12.91C13.5067 13.2108 13.564 13.5651 13.4937 13.9054Z" stroke="white" stroke-linecap="round" stroke-linejoin="round"/>
</svg>
